# xmcd
#
# Track frame offsets: 
#        150
#        18602
#        33835
#        54482
#        73612
#        90945
#        106355
#        120337
#        132590
#        148232
#        160532
#        178437
#
# Disc length: 2610 seconds
#
# Revision: 1
# Processed by: cddbd v1.5.2PL0 Copyright (c) Steve Scherf et al.
# Submitted via: ExactAudioCopyFreeDBPlugin 1.0
#
DISCID=a20a300c
DTITLE=Allan Taylor - Old Friends - New Roads
DYEAR=2007
DGENRE=Country
TTITLE0=Chimes At Midnight
TTITLE1=For An Old Friend
TTITLE2=Urban Love Song
TTITLE3=The Meadow
TTITLE4=Homestate
TTITLE5=The Morning Lies Hesvy
TTITLE6=Syracuse And Albany
TTITLE7=Now You Know
TTITLE8=Let Me Be
TTITLE9=Flower In The Snow
TTITLE10=Like I Used To Do
TTITLE11=Lady Take Your Time
EXTD=
EXTT0=
EXTT1=
EXTT2=
EXTT3=
EXTT4=
EXTT5=
EXTT6=
EXTT7=
EXTT8=
EXTT9=
EXTT10=
EXTT11=
PLAYORDER=
